<svg width="14" height="14" viewBox="0 0 14 14" fill="none" xmlns="http://www.w3.org/2000/svg">
<path d="M0.329409 13.589C0.11843 13.378 -9.57328e-05 13.0919 -9.50585e-05 12.7935C-9.57328e-05 12.4951 0.11843 12.209 0.329408 11.998L10.0742 2.25318L3.24424 2.25385C2.94535 2.25385 2.6587 2.13511 2.44736 1.92377C2.23602 1.71242 2.11729 1.42578 2.11728 1.12689C2.11728 0.828008 2.23602 0.541363 2.44736 0.330018C2.6587 0.118674 2.94535 -5.72524e-05 3.24424 -5.69152e-05L12.7902 -5.67045e-05C12.9382 -0.000314032 13.0849 0.0286601 13.2217 0.0852035C13.3586 0.141748 13.4829 0.224748 13.5876 0.329446C13.6923 0.434145 13.7753 0.558481 13.8319 0.695325C13.8884 0.832169 13.9174 0.978829 13.9171 1.12689L13.9171 10.6728C13.9171 10.8208 13.888 10.9674 13.8313 11.1041C13.7747 11.2408 13.6917 11.3651 13.5871 11.4697C13.4824 11.5744 13.3582 11.6574 13.2214 11.714C13.0847 11.7706 12.9382 11.7998 12.7902 11.7998C12.6422 11.7998 12.4956 11.7706 12.3589 11.714C12.2222 11.6574 12.0979 11.5744 11.9933 11.4697C11.8887 11.3651 11.8056 11.2408 11.749 11.1041C11.6924 10.9674 11.6632 10.8208 11.6632 10.6728L11.6652 3.84417L1.9204 13.589C1.70942 13.8 1.42327 13.9185 1.12491 13.9185C0.826536 13.9185 0.540387 13.8 0.329409 13.589Z" fill="#1A1A1A"/>
</svg>
