<svg width="10" height="18" viewBox="0 0 10 18" fill="none" xmlns="http://www.w3.org/2000/svg">
<path d="M1.92476 0.332033L9.42476 7.83203C9.52964 7.93655 9.61286 8.06074 9.66964 8.19749C9.72642 8.33423 9.75565 8.48084 9.75565 8.62891C9.75565 8.77697 9.72642 8.92358 9.66964 9.06033C9.61286 9.19708 9.52964 9.32127 9.42476 9.42578L1.92476 16.9258C1.71342 17.1371 1.42677 17.2559 1.12789 17.2559C0.829003 17.2559 0.542358 17.1371 0.331014 16.9258C0.11967 16.7144 0.000937713 16.4278 0.000937714 16.1289C0.000937714 15.83 0.11967 15.5434 0.331014 15.332L7.03508 8.62797L0.330077 1.92391C0.118733 1.71256 1.8877e-07 1.42592 1.92334e-07 1.12703C1.95898e-07 0.828148 0.118733 0.541504 0.330077 0.330158C0.541421 0.118814 0.828066 8.01185e-05 1.12695 8.01221e-05C1.42584 8.01256e-05 1.71248 0.118814 1.92383 0.330158L1.92476 0.332033Z" fill="#B3B3B3"/>
</svg>
