<svg width="24" height="22" viewBox="0 0 24 22" fill="none" xmlns="http://www.w3.org/2000/svg">
<path d="M10.8096 0.989911C11.0956 0.428735 11.2387 0.148147 11.4329 0.0584987C11.6019 -0.0194996 11.7981 -0.0194996 11.9671 0.0584987C12.1613 0.148147 12.3044 0.428735 12.5904 0.98991L15.3047 6.31393C15.3892 6.4796 15.4314 6.56243 15.4931 6.62675C15.5478 6.68369 15.6133 6.72983 15.6861 6.76261C15.7683 6.79963 15.8627 6.81299 16.0515 6.83971L22.1229 7.69893C22.7623 7.78941 23.082 7.83465 23.2299 7.98584C23.3586 8.11738 23.4192 8.29814 23.3947 8.47779C23.3665 8.68427 23.1351 8.90252 22.6722 9.33902L18.2805 13.4805C18.1436 13.6096 18.0752 13.6742 18.031 13.751C17.9919 13.819 17.9668 13.8937 17.9571 13.971C17.9462 14.0582 17.9624 14.1494 17.9947 14.3318L19.0309 20.1815C19.1402 20.7985 19.1948 21.107 19.0921 21.29C19.0028 21.4493 18.844 21.561 18.6599 21.5941C18.4483 21.632 18.1622 21.4864 17.59 21.195L12.1622 18.4313C11.9931 18.3452 11.9085 18.3022 11.8194 18.2852C11.7406 18.2703 11.6594 18.2703 11.5806 18.2852C11.4915 18.3022 11.4069 18.3452 11.2378 18.4313L5.81004 21.195C5.2378 21.4864 4.95168 21.632 4.74012 21.5941C4.55605 21.561 4.39722 21.4493 4.30787 21.29C4.20517 21.107 4.25981 20.7985 4.36911 20.1815L5.40534 14.3318C5.43764 14.1494 5.45379 14.0582 5.44286 13.971C5.43319 13.8937 5.4081 13.819 5.36899 13.751C5.32482 13.6742 5.25637 13.6096 5.11947 13.4805L0.727809 9.33902C0.264943 8.90252 0.0335094 8.68427 0.00534683 8.47779C-0.0191561 8.29814 0.0413776 8.11738 0.170094 7.98584C0.318035 7.83465 0.637708 7.78941 1.27705 7.69893L7.34846 6.83971C7.53727 6.81299 7.63168 6.79963 7.7139 6.76261C7.78669 6.72983 7.85223 6.68369 7.90688 6.62675C7.96859 6.56243 8.01082 6.4796 8.09529 6.31393L10.8096 0.989911Z" fill="#E6E6E6"/>
</svg>
